<svg xmlns="http://www.w3.org/2000/svg" shape-rendering="geometricPrecision" text-rendering="geometricPrecision" image-rendering="optimizeQuality" fill-rule="evenodd" clip-rule="evenodd" viewBox="0 0 495 511.87"><path d="M32.87 28.24h123.11l7.6-26.95h30.66l-7.05 26.95h45.74V2.61h30.3v25.63h45.23L297.68 0h31.85l10.98 28.24h121.62c9 0 17.2 3.69 23.18 9.65l.06.06c5.94 5.97 9.63 14.17 9.63 23.16v254.4c0 9.01-3.7 17.21-9.65 23.19l-.07.06c-5.97 5.94-14.17 9.63-23.15 9.63h-43.32l44.9 163.48H432.6l-20.15-73.06H263.23v69.04h-30.3v-69.04H81.14l-20.21 72.67H29.76l45.21-163.09h-42.1c-9 0-17.21-3.7-23.18-9.65l-.07-.07C3.68 332.7 0 324.5 0 315.51V61.11c0-9 3.69-17.21 9.65-23.18l.07-.07c5.97-5.94 14.16-9.62 23.15-9.62zm371.22 380.27-16.58-60.12H263.23v60.12h140.86zm-171.16 0v-60.12H106.28l-16.72 60.12h143.37zM32.87 39.25h429.26c12.02 0 21.85 9.84 21.85 21.86v254.4c0 12.03-9.83 21.86-21.85 21.86H32.87c-12.02 0-21.85-9.83-21.85-21.86V61.11c0-12.02 9.83-21.86 21.85-21.86z"/></svg>