<svg xmlns="http://www.w3.org/2000/svg" shape-rendering="geometricPrecision" 
text-rendering="geometricPrecision" 
image-rendering="optimizeQuality" 
fill-rule="evenodd" 
clip-rule="evenodd" 
viewBox="0 0 512 344.74">
<path d="M57.18 0h384.51c6.08 0 11.05 4.96 11.05 11.05v33.42h-16.08V27.16c0-5.36-4.37-9.76-9.76-9.76H72c-5.36 0-9.79 4.38-9.76 9.76v108.86c-5.54.98-10.92 2.41-16.11 4.26V11.05C46.13 4.96 51.1 0 57.18 0zm25.64 190.54c3.25 0 5.81.94 7.67 2.8 1.84 1.85 2.77 4.4 2.77 7.67 0 3.33-1.58 6.29-4.77 8.88-3.21 2.59-6.94 3.9-11.18 3.9-3.19 0-5.73-.9-7.67-2.69-1.94-1.81-2.91-4.15-2.91-7.06 0-3.67 1.58-6.83 4.73-9.52 3.16-2.65 6.94-3.98 11.36-3.98zm-21.17 74.15h4.17v-34.45h-7.89c0-10.74 19.74-3.77 34.27-7.43v41.88h5.49v9.27H61.65v-9.27zm18.33-108.73c44.16 0 79.97 35.81 79.97 79.98 0 44.16-35.81 79.97-79.97 79.97C35.81 315.91 0 280.1 0 235.94c0-44.17 35.81-79.98 79.98-79.98zm310.83-88.93h107.34c7.62 0 13.85 6.22 13.85 13.85v247.94c0 7.61-6.23 13.84-13.85 13.84H390.81c-7.62 0-13.85-6.23-13.85-13.84V80.88c0-7.63 6.23-13.85 13.85-13.85zm86.63 58.4h12.74v4.64h-12.74v-4.64zm-32.97 159.92c8.3 0 15.05 6.74 15.05 15.04 0 8.31-6.75 15.06-15.05 15.06s-15.05-6.75-15.05-15.06c.02-8.3 6.75-15.04 15.05-15.04zm-48.76-173.04h97.54c1.6 0 2.89 1.3 2.89 2.88v17.79a2.91 2.91 0 0 1-2.89 2.89h-97.54c-1.6 0-2.89-1.31-2.89-2.89v-17.79a2.89 2.89 0 0 1 2.89-2.88zm-41.88 172.07H169.1c7.17-13.13 11.53-28 12.24-43.8h172.49v43.8zM199.3 299.64h100.27c.26 17.34 7.41 32.89 26.76 45.1H172.54c15.48-11.22 26.83-24.86 26.76-45.1z"/></svg>