<svg xmlns="http://www.w3.org/2000/svg" shape-rendering="geometricPrecision" text-rendering="geometricPrecision" image-rendering="optimizeQuality" fill-rule="evenodd" clip-rule="evenodd" viewBox="0 0 483 511.82"><path d="M281.6 0c55.61 0 105.97 22.55 142.41 58.99S483 145.79 483 201.4s-22.55 105.96-58.99 142.41c-9.07 9.07-19 17.27-29.65 24.49-9.69 32.34-27.29 61.27-50.55 84.53-36.45 36.44-86.8 58.99-142.41 58.99S95.43 489.27 58.99 452.83C22.55 416.38 0 366.03 0 310.42s22.55-105.96 58.99-142.41c9.07-9.07 19-17.27 29.66-24.49 9.69-32.34 27.28-61.27 50.54-84.53C175.64 22.55 225.99 0 281.6 0zm-80.2 235.66c20.56 0 39.23 8.37 52.79 21.9l.11.11c13.51 13.55 21.86 32.21 21.86 52.75 0 20.57-8.37 39.23-21.9 52.8l-.11.1c-3.31 3.3-6.92 6.29-10.8 8.93 7.37 42.9 11.47 89.15-6.4 103.07a10.368 10.368 0 0 1-6.52 2.21l-33.99-.42c-.43 0-.85-.03-1.26-.09-18.96-2.56-26.8-21.05-29.6-41.81-2.38-17.59-1.21-36.67-.6-46.32.27-4.15.61-8.36 1.03-12.65a75.385 75.385 0 0 1-17.41-12.96l-.1-.11c-13.51-13.55-21.86-32.2-21.86-52.75 0-20.56 8.37-39.23 21.9-52.79l.1-.11c13.56-13.51 32.22-21.86 52.76-21.86zm38.5 117.73c11.79-10.56 19.2-25.9 19.2-42.97 0-31.87-25.83-57.7-57.7-57.7-31.87 0-57.7 25.83-57.7 57.7 0 19.52 9.68 36.76 24.51 47.21.24-1.74.5-3.49.76-5.25 1.32-8.86 2.91-18.07 4.77-27.58-2.24-4.3-3.51-9.19-3.51-14.38 0-17.21 13.95-31.17 31.17-31.17 17.21 0 31.17 13.96 31.17 31.17 0 1.54-.12 3.06-.33 4.55 1.2 6.24 2.1 10.65 3.09 15.49 1.45 7.13 3.02 14.86 4.57 22.93zm160.36-10.93c40.16-33.81 65.68-84.45 65.68-141.06 0-101.81-82.53-184.34-184.34-184.34-76.54 0-142.16 46.65-170.03 113.06 27.04-13.5 57.55-21.1 89.83-21.1 55.61 0 105.96 22.55 142.41 58.99 36.44 36.45 58.99 86.8 58.99 142.41 0 10.91-.87 21.61-2.54 32.04zM201.4 126.08c101.81 0 184.34 82.53 184.34 184.34S303.21 494.76 201.4 494.76 17.06 412.23 17.06 310.42 99.59 126.08 201.4 126.08zm-5.06 215.1c.8 4.27 1.63 8.57 2.46 12.87 7.6 39.53 15.2 79.06 8.8 102.4l-.05.19-.32 1.09-.05.18c-.24.77-.49 1.53-.77 2.26l-.06.17-.07.17-.06.17-.2.5-.06.17-.07.16-.07.16-.07.17-.07.16-.14.32-.07.16-.07.16-.08.16-.07.16-.08.15-.07.16-.07.16-.08.15-.08.15-.23.45v.01l-.08.15-.16.3-.08.15-.25.45-.08.14-.17.29-.09.15-.26.42-.09.14-.09.14-.09.14-.09.14 27.44.33c19.18-14.94 3.7-89.82-5.72-136.15-5.71 6.51-14.09 10.61-23.43 10.61-1.73 0-3.42-.14-5.06-.41zm-3.53 121.93c.21-.22.42-.45.62-.69l.01-.01-.63.7zm1.23-1.45.5-.7.04-.06.03-.04.07-.1.33-.52v-.01l.07-.11.06-.1.07-.11.06-.11.19-.34.06-.11.06-.11.02-.03.04-.08.06-.12.12-.23.06-.12.06-.11.06-.12.16-.34.01-.02.05-.12.06-.12.06-.12.05-.13.05-.12.06-.12.05-.13.05-.12.06-.13.1-.25.05-.13.05-.13.01-.02.09-.24c7.04-18.67-.24-57.79-7.86-97.4l-.12-.6-.41-2.18-.06-.3-.06-.3-.01-.03-.05-.27-.05-.29-.02-.08-.04-.22-.06-.3-.02-.11-.04-.19-.06-.3-.02-.15-.03-.15-.06-.3-.04-.18-.02-.12-.05-.3-.05-.22-.01-.08-.06-.3-.05-.25-.01-.05-.06-.3-.05-.29-.06-.3-.06-.3v-.04l-.05-.26-.06-.3-.02-.07-.04-.23-.06-.3-.02-.11-.03-.19-.06-.3-.03-.14-.03-.16-.06-.3-.03-.18-.08-.42-.04-.21-.02-.08-.05-.3-.05-.26-.01-.04-.11-.59v-.01l-.06-.3-.06-.3v-.03l-.05-.27-.08-.36-.04-.24-.05-.29-.02-.1-.04-.2-.06-.3-.02-.14-.03-.16-.06-.3-.11-.59-.04-.22-.02-.08-.1-.55-.01-.05-.06-.3-.05-.28v-.02l-.12-.59v-.02l-.05-.28-.06-.3-.01-.06-.04-.24-.06-.3-.02-.09-.03-.2-.06-.3-.03-.14-.19-1.05-.04-.21-.02-.09c-.87-.55-1.72-1.14-2.54-1.77-3.52 19.4-5.94 37.62-7.01 54.42-1.11 17.35-4.05 66.13 16.19 75.7l.01-.03.01-.04.01-.04.02-.04.01-.03.01-.04.01-.03.01-.02.01-.02.01-.03.01-.04.01-.03.02-.04.01-.04.02-.03v-.01l.01-.03.02-.03.01-.04.01-.01.01-.02.01-.04.02-.03.01-.03v-.01l.02-.03.02-.04.02-.03v-.01l.01-.03.02-.03.02-.03.01-.02.01-.02.02-.03.01-.04.02-.02v-.01l.02-.03.02-.04.02-.03.02-.03.02-.04.02-.03.01-.01.01-.02.02-.04.02-.03.02-.02.01-.01.02-.03.02-.04.03-.03.02-.03.02-.03.02-.03.01-.02.02-.02.02-.03.02-.03.02-.02.01-.01.02-.03.03-.03.03-.03.02-.03.02-.03.03-.03.01-.02.02-.01.03-.03.02-.03.02-.02.01-.01.03-.03.02-.03.03-.03 1.23-1.45zm-.02.02.02-.02-.02.02z"/></svg>